<svg xmlns="http://www.w3.org/2000/svg" xmlns:xlink="http://www.w3.org/1999/xlink" width="500" zoomAndPan="magnify" viewBox="0 0 375 374.999991" height="500" preserveAspectRatio="xMidYMid meet" version="1.0"><defs><g/><clipPath id="1bc6c8d3d1"><path d="M 61.054688 110.265625 L 325 110.265625 L 325 202.515625 L 61.054688 202.515625 Z M 61.054688 110.265625 " clip-rule="nonzero"/></clipPath></defs><g clip-path="url(#1bc6c8d3d1)"><path fill="#755673" d="M 204.246094 190.5 L 182.109375 190.5 L 156.785156 165.871094 L 193.167969 127.289062 L 229.550781 165.886719 Z M 324.859375 194.039062 L 262.746094 133.601562 L 237.925781 157.742188 L 193.167969 110.265625 L 148.414062 157.726562 L 123.609375 133.601562 L 61.492188 194.039062 L 65.230469 197.878906 L 65.652344 198.3125 L 69.636719 202.410156 L 123.613281 149.894531 L 177.601562 202.410156 L 177.617188 202.390625 L 208.734375 202.390625 L 208.753906 202.410156 L 208.773438 202.390625 L 208.773438 202.386719 L 262.742188 149.894531 L 316.714844 202.410156 L 320.789062 198.222656 L 321.125 197.878906 L 324.859375 194.039062 " fill-opacity="1" fill-rule="nonzero"/></g><path fill="#755673" d="M 113.644531 178.605469 L 113.644531 187.199219 L 122.546875 187.199219 L 122.546875 178.300781 L 113.644531 178.300781 L 113.644531 178.605469 " fill-opacity="1" fill-rule="nonzero"/><path fill="#755673" d="M 124.691406 178.605469 L 124.691406 187.199219 L 133.59375 187.199219 L 133.59375 178.300781 L 124.691406 178.300781 L 124.691406 178.605469 " fill-opacity="1" fill-rule="nonzero"/><path fill="#755673" d="M 113.644531 189.628906 L 113.644531 198.222656 L 122.546875 198.222656 L 122.546875 189.320312 L 113.644531 189.320312 L 113.644531 189.628906 " fill-opacity="1" fill-rule="nonzero"/><path fill="#755673" d="M 124.691406 189.628906 L 124.691406 198.222656 L 133.59375 198.222656 L 133.59375 189.320312 L 124.691406 189.320312 L 124.691406 189.628906 " fill-opacity="1" fill-rule="nonzero"/><path fill="#755673" d="M 252.757812 178.605469 L 252.757812 187.199219 L 261.660156 187.199219 L 261.660156 178.300781 L 252.757812 178.300781 L 252.757812 178.605469 " fill-opacity="1" fill-rule="nonzero"/><path fill="#755673" d="M 263.808594 178.605469 L 263.808594 187.199219 L 272.707031 187.199219 L 272.707031 178.300781 L 263.808594 178.300781 L 263.808594 178.605469 " fill-opacity="1" fill-rule="nonzero"/><path fill="#755673" d="M 252.757812 189.628906 L 252.757812 198.222656 L 261.660156 198.222656 L 261.660156 189.320312 L 252.757812 189.320312 L 252.757812 189.628906 " fill-opacity="1" fill-rule="nonzero"/><path fill="#755673" d="M 263.808594 189.628906 L 263.808594 198.222656 L 272.707031 198.222656 L 272.707031 189.320312 L 263.808594 189.320312 L 263.808594 189.628906 " fill-opacity="1" fill-rule="nonzero"/><path fill="#755673" d="M 183.195312 154.800781 L 183.195312 163.394531 L 192.09375 163.394531 L 192.09375 154.492188 L 183.195312 154.492188 L 183.195312 154.800781 " fill-opacity="1" fill-rule="nonzero"/><path fill="#755673" d="M 203.144531 163.089844 L 203.144531 154.492188 L 194.242188 154.492188 L 194.242188 163.394531 L 203.144531 163.394531 L 203.144531 163.089844 " fill-opacity="1" fill-rule="nonzero"/><path fill="#755673" d="M 183.195312 165.824219 L 183.195312 174.417969 L 192.09375 174.417969 L 192.09375 165.515625 L 183.195312 165.515625 L 183.195312 165.824219 " fill-opacity="1" fill-rule="nonzero"/><path fill="#755673" d="M 203.144531 174.109375 L 203.144531 165.515625 L 194.242188 165.515625 L 194.242188 174.417969 L 203.144531 174.417969 L 203.144531 174.109375 " fill-opacity="1" fill-rule="nonzero"/><g fill="#ea9d08" fill-opacity="1"><g transform="translate(45.235901, 234.900527)"><g><path d="M 15.78125 -4.578125 L 5.53125 -4.578125 L 3.59375 0 L 0.03125 0 L 8.984375 -20.296875 L 12.5 -20.296875 L 21.375 0 L 17.71875 0 Z M 14.46875 -7.625 L 10.640625 -16.640625 L 6.8125 -7.625 Z M 14.46875 -7.625 "/></g></g></g><g fill="#ea9d08" fill-opacity="1"><g transform="translate(72.63518, 234.900527)"><g><path d="M 2.671875 -20.296875 L 10.765625 -20.296875 C 13.316406 -20.296875 15.289062 -19.691406 16.6875 -18.484375 C 18.09375 -17.273438 18.796875 -15.570312 18.796875 -13.375 C 18.796875 -11.070312 18.09375 -9.285156 16.6875 -8.015625 C 15.289062 -6.753906 13.316406 -6.125 10.765625 -6.125 L 6.09375 -6.125 L 6.09375 0 L 2.671875 0 Z M 6.09375 -17.21875 L 6.09375 -9.1875 L 10.609375 -9.1875 C 13.878906 -9.1875 15.515625 -10.550781 15.515625 -13.28125 C 15.515625 -15.90625 13.878906 -17.21875 10.609375 -17.21875 Z M 6.09375 -17.21875 "/></g></g></g><g fill="#ea9d08" fill-opacity="1"><g transform="translate(98.149962, 234.900527)"><g><path d="M 15.78125 -4.578125 L 5.53125 -4.578125 L 3.59375 0 L 0.03125 0 L 8.984375 -20.296875 L 12.5 -20.296875 L 21.375 0 L 17.71875 0 Z M 14.46875 -7.625 L 10.640625 -16.640625 L 6.8125 -7.625 Z M 14.46875 -7.625 "/></g></g></g><g fill="#ea9d08" fill-opacity="1"><g transform="translate(125.549239, 234.900527)"><g><path d="M 15.546875 0 L 11.828125 -6.140625 C 11.640625 -6.128906 11.332031 -6.125 10.90625 -6.125 L 6.09375 -6.125 L 6.09375 0 L 2.671875 0 L 2.671875 -20.296875 L 10.90625 -20.296875 C 13.5 -20.296875 15.507812 -19.691406 16.9375 -18.484375 C 18.363281 -17.273438 19.078125 -15.570312 19.078125 -13.375 C 19.078125 -11.75 18.710938 -10.375 17.984375 -9.25 C 17.265625 -8.125 16.226562 -7.300781 14.875 -6.78125 L 19.4375 0 Z M 6.09375 -9.1875 L 10.90625 -9.1875 C 14.1875 -9.1875 15.828125 -10.550781 15.828125 -13.28125 C 15.828125 -15.90625 14.1875 -17.21875 10.90625 -17.21875 L 6.09375 -17.21875 Z M 6.09375 -9.1875 "/></g></g></g><g fill="#ea9d08" fill-opacity="1"><g transform="translate(152.513634, 234.900527)"><g><path d="M 16.53125 -17.21875 L 10.09375 -17.21875 L 10.09375 0 L 6.671875 0 L 6.671875 -17.21875 L 0.265625 -17.21875 L 0.265625 -20.296875 L 16.53125 -20.296875 Z M 16.53125 -17.21875 "/></g></g></g><g fill="#ea9d08" fill-opacity="1"><g transform="translate(175.303157, 234.900527)"><g><path d="M 15.78125 -4.578125 L 5.53125 -4.578125 L 3.59375 0 L 0.03125 0 L 8.984375 -20.296875 L 12.5 -20.296875 L 21.375 0 L 17.71875 0 Z M 14.46875 -7.625 L 10.640625 -16.640625 L 6.8125 -7.625 Z M 14.46875 -7.625 "/></g></g></g><g fill="#ea9d08" fill-opacity="1"><g transform="translate(202.702439, 234.900527)"><g><path d="M 24.125 0 L 20.96875 0 L 20.9375 -15.171875 L 14.53125 -2.109375 L 12.296875 -2.109375 L 5.890625 -15.171875 L 5.890625 0 L 2.671875 0 L 2.671875 -20.296875 L 6.734375 -20.296875 L 13.421875 -6.8125 L 20.09375 -20.296875 L 24.125 -20.296875 Z M 24.125 0 "/></g></g></g><g fill="#ea9d08" fill-opacity="1"><g transform="translate(235.523257, 234.900527)"><g><path d="M 17.171875 -17.21875 L 6.09375 -17.21875 L 6.09375 -11.75 L 16.015625 -11.75 L 16.015625 -8.671875 L 6.09375 -8.671875 L 6.09375 -3.078125 L 17.515625 -3.078125 L 17.515625 0 L 2.671875 0 L 2.671875 -20.296875 L 17.171875 -20.296875 Z M 17.171875 -17.21875 "/></g></g></g><g fill="#ea9d08" fill-opacity="1"><g transform="translate(260.545167, 234.900527)"><g><path d="M 20.265625 0 L 16.90625 0 L 6.09375 -14.5625 L 6.09375 0 L 2.671875 0 L 2.671875 -20.296875 L 6.03125 -20.296875 L 16.90625 -5.71875 L 16.90625 -20.296875 L 20.265625 -20.296875 Z M 20.265625 0 "/></g></g></g><g fill="#ea9d08" fill-opacity="1"><g transform="translate(289.510024, 234.900527)"><g><path d="M 16.53125 -17.21875 L 10.09375 -17.21875 L 10.09375 0 L 6.671875 0 L 6.671875 -17.21875 L 0.265625 -17.21875 L 0.265625 -20.296875 L 16.53125 -20.296875 Z M 16.53125 -17.21875 "/></g></g></g><g fill="#ea9d08" fill-opacity="1"><g transform="translate(312.299535, 234.900527)"><g><path d="M 17.171875 -17.21875 L 6.09375 -17.21875 L 6.09375 -11.75 L 16.015625 -11.75 L 16.015625 -8.671875 L 6.09375 -8.671875 L 6.09375 -3.078125 L 17.515625 -3.078125 L 17.515625 0 L 2.671875 0 L 2.671875 -20.296875 L 17.171875 -20.296875 Z M 17.171875 -17.21875 "/></g></g></g><g fill="#ea9d08" fill-opacity="1"><g transform="translate(114.508495, 259.99409)"><g><path d="M 11.421875 -6.875 L 13.484375 -6.875 L 13.484375 -1.71875 C 12.765625 -1.175781 11.910156 -0.738281 10.921875 -0.40625 C 9.941406 -0.0703125 8.984375 0.09375 8.046875 0.09375 C 5.972656 0.09375 4.226562 -0.585938 2.8125 -1.953125 C 1.394531 -3.316406 0.6875 -5 0.6875 -7 C 0.6875 -9 1.40625 -10.675781 2.84375 -12.03125 C 4.28125 -13.382812 6.0625 -14.0625 8.1875 -14.0625 C 9.164062 -14.0625 10.128906 -13.882812 11.078125 -13.53125 C 12.035156 -13.175781 12.863281 -12.695312 13.5625 -12.09375 L 12.21875 -10.359375 C 11.070312 -11.421875 9.726562 -11.953125 8.1875 -11.953125 C 6.757812 -11.953125 5.550781 -11.472656 4.5625 -10.515625 C 3.570312 -9.554688 3.078125 -8.382812 3.078125 -7 C 3.078125 -5.601562 3.570312 -4.421875 4.5625 -3.453125 C 5.5625 -2.492188 6.773438 -2.015625 8.203125 -2.015625 C 9.273438 -2.015625 10.347656 -2.335938 11.421875 -2.984375 Z M 11.421875 -6.875 "/></g></g></g><g fill="#ea9d08" fill-opacity="1"><g transform="translate(132.142588, 259.99409)"><g><path d="M 10.875 -3.15625 L 3.8125 -3.15625 L 2.484375 0 L 0.015625 0 L 6.203125 -14 L 8.625 -14 L 14.734375 0 L 12.21875 0 Z M 9.984375 -5.265625 L 7.34375 -11.484375 L 4.703125 -5.265625 Z M 9.984375 -5.265625 "/></g></g></g><g fill="#ea9d08" fill-opacity="1"><g transform="translate(149.55677, 259.99409)"><g><path d="M 10.71875 0 L 8.15625 -4.234375 C 8.019531 -4.222656 7.804688 -4.21875 7.515625 -4.21875 L 4.203125 -4.21875 L 4.203125 0 L 1.84375 0 L 1.84375 -14 L 7.515625 -14 C 9.304688 -14 10.691406 -13.582031 11.671875 -12.75 C 12.660156 -11.914062 13.15625 -10.738281 13.15625 -9.21875 C 13.15625 -8.101562 12.90625 -7.15625 12.40625 -6.375 C 11.90625 -5.601562 11.191406 -5.039062 10.265625 -4.6875 L 13.40625 0 Z M 4.203125 -6.34375 L 7.515625 -6.34375 C 9.785156 -6.34375 10.921875 -7.28125 10.921875 -9.15625 C 10.921875 -10.96875 9.785156 -11.875 7.515625 -11.875 L 4.203125 -11.875 Z M 4.203125 -6.34375 "/></g></g></g><g fill="#ea9d08" fill-opacity="1"><g transform="translate(166.671074, 259.99409)"><g><path d="M 10.875 -3.15625 L 3.8125 -3.15625 L 2.484375 0 L 0.015625 0 L 6.203125 -14 L 8.625 -14 L 14.734375 0 L 12.21875 0 Z M 9.984375 -5.265625 L 7.34375 -11.484375 L 4.703125 -5.265625 Z M 9.984375 -5.265625 "/></g></g></g><g fill="#ea9d08" fill-opacity="1"><g transform="translate(184.085255, 259.99409)"><g/></g></g><g fill="#ea9d08" fill-opacity="1"><g transform="translate(191.903223, 259.99409)"><g><path d="M 1.84375 -14 L 7.421875 -14 C 9.179688 -14 10.539062 -13.582031 11.5 -12.75 C 12.46875 -11.914062 12.953125 -10.738281 12.953125 -9.21875 C 12.953125 -7.632812 12.46875 -6.40625 11.5 -5.53125 C 10.539062 -4.65625 9.179688 -4.21875 7.421875 -4.21875 L 4.203125 -4.21875 L 4.203125 0 L 1.84375 0 Z M 4.203125 -11.875 L 4.203125 -6.34375 L 7.3125 -6.34375 C 9.570312 -6.34375 10.703125 -7.28125 10.703125 -9.15625 C 10.703125 -10.96875 9.570312 -11.875 7.3125 -11.875 Z M 4.203125 -11.875 "/></g></g></g><g fill="#ea9d08" fill-opacity="1"><g transform="translate(208.017916, 259.99409)"><g><path d="M 11.84375 -11.875 L 4.203125 -11.875 L 4.203125 -8.09375 L 11.046875 -8.09375 L 11.046875 -5.984375 L 4.203125 -5.984375 L 4.203125 -2.125 L 12.078125 -2.125 L 12.078125 0 L 1.84375 0 L 1.84375 -14 L 11.84375 -14 Z M 11.84375 -11.875 "/></g></g></g><g fill="#ea9d08" fill-opacity="1"><g transform="translate(223.792743, 259.99409)"><g><path d="M 10.71875 0 L 8.15625 -4.234375 C 8.019531 -4.222656 7.804688 -4.21875 7.515625 -4.21875 L 4.203125 -4.21875 L 4.203125 0 L 1.84375 0 L 1.84375 -14 L 7.515625 -14 C 9.304688 -14 10.691406 -13.582031 11.671875 -12.75 C 12.660156 -11.914062 13.15625 -10.738281 13.15625 -9.21875 C 13.15625 -8.101562 12.90625 -7.15625 12.40625 -6.375 C 11.90625 -5.601562 11.191406 -5.039062 10.265625 -4.6875 L 13.40625 0 Z M 4.203125 -6.34375 L 7.515625 -6.34375 C 9.785156 -6.34375 10.921875 -7.28125 10.921875 -9.15625 C 10.921875 -10.96875 9.785156 -11.875 7.515625 -11.875 L 4.203125 -11.875 Z M 4.203125 -6.34375 "/></g></g></g><g fill="#ea9d08" fill-opacity="1"><g transform="translate(240.90705, 259.99409)"><g><path d="M 4.203125 0 L 1.84375 0 L 1.84375 -14 L 4.203125 -14 Z M 4.203125 0 "/></g></g></g><g fill="#ea9d08" fill-opacity="1"><g transform="translate(249.604674, 259.99409)"><g><path d="M 6.4375 -14.09375 C 8.25 -14.09375 9.882812 -13.613281 11.34375 -12.65625 L 10.359375 -10.578125 C 8.929688 -11.441406 7.566406 -11.875 6.265625 -11.875 C 5.554688 -11.875 5 -11.75 4.59375 -11.5 C 4.1875 -11.25 3.984375 -10.890625 3.984375 -10.421875 C 3.984375 -9.953125 4.164062 -9.550781 4.53125 -9.21875 C 4.90625 -8.894531 5.375 -8.65625 5.9375 -8.5 C 6.5 -8.351562 7.101562 -8.160156 7.75 -7.921875 C 8.40625 -7.691406 9.015625 -7.445312 9.578125 -7.1875 C 10.140625 -6.925781 10.601562 -6.519531 10.96875 -5.96875 C 11.332031 -5.414062 11.515625 -4.742188 11.515625 -3.953125 C 11.515625 -2.734375 11.023438 -1.753906 10.046875 -1.015625 C 9.066406 -0.285156 7.796875 0.078125 6.234375 0.078125 C 5.171875 0.078125 4.140625 -0.117188 3.140625 -0.515625 C 2.140625 -0.921875 1.265625 -1.460938 0.515625 -2.140625 L 1.546875 -4.1875 C 2.242188 -3.53125 3.015625 -3.023438 3.859375 -2.671875 C 4.710938 -2.316406 5.519531 -2.140625 6.28125 -2.140625 C 7.101562 -2.140625 7.742188 -2.289062 8.203125 -2.59375 C 8.671875 -2.894531 8.90625 -3.3125 8.90625 -3.84375 C 8.90625 -4.320312 8.71875 -4.722656 8.34375 -5.046875 C 7.96875 -5.378906 7.5 -5.617188 6.9375 -5.765625 C 6.375 -5.921875 5.765625 -6.109375 5.109375 -6.328125 C 4.460938 -6.546875 3.859375 -6.78125 3.296875 -7.03125 C 2.734375 -7.28125 2.265625 -7.675781 1.890625 -8.21875 C 1.523438 -8.769531 1.34375 -9.429688 1.34375 -10.203125 C 1.34375 -11.390625 1.804688 -12.332031 2.734375 -13.03125 C 3.671875 -13.738281 4.90625 -14.09375 6.4375 -14.09375 Z M 6.4375 -14.09375 "/></g></g></g></svg>